Coordinates
version=1
nRows=5
nColumns=40
inDegrees=yes

Units are S.I. units (second, meters, Newtons, ...)
Angles are in degrees.

endheader
time	pelvis_tilt	pelvis_list	pelvis_rotation	pelvis_tx	pelvis_ty	pelvis_tz	hip_flexion_r	hip_adduction_r	hip_rotation_r	knee_angle_r	knee_angle_r_beta	ankle_angle_r	subtalar_angle_r	mtp_angle_r	hip_flexion_l	hip_adduction_l	hip_rotation_l	knee_angle_l	knee_angle_l_beta	ankle_angle_l	subtalar_angle_l	mtp_angle_l	lumbar_extension	lumbar_bending	lumbar_rotation	arm_flex_r	arm_add_r	arm_rot_r	elbow_flex_r	pro_sup_r	wrist_flex_r	wrist_dev_r	arm_flex_l	arm_add_l	arm_rot_l	elbow_flex_l	pro_sup_l	wrist_flex_l	wrist_dev_l
      0.90000000	     -0.30337248	      0.78283449	     -2.57503204	      0.52280615	      0.94672132	      1.12607297	     -9.30627919	     -2.21594636	    -19.67647128	    -11.39667814	     -0.19890956	     10.47661615	      6.89707360	    -15.09189784	     24.49909276	      2.10220428	     26.25810863	    -17.43310075	     -0.30426501	      5.10668545	     12.09010990	     13.00642036	     -1.82487885	     -5.73572805	      4.80051324	      2.44176239	    -14.78196725	     -7.49837659	     33.07127372	     89.95437384	      0.00000000	      0.00000000	     -9.35381859	     14.03299491	     12.38761464	     11.44988254	     89.95437384	      0.00000000	      0.00000000
      0.91000000	     -0.45069888	      0.50536666	     -2.71113313	      0.53635744	      0.94406096	      1.12530193	    -10.10386103	     -2.04627149	    -20.17997936	    -11.38474271	     -0.19870124	     10.55828144	      7.23898365	    -15.28129813	     25.01280970	      2.37293771	     26.75984436	    -15.47714926	     -0.27012721	      4.95939802	     11.11325323	     12.96571702	     -1.53503213	     -5.45073990	      5.02418227	      2.79106700	    -15.31605384	     -7.28550153	     34.53140460	     89.95437384	      0.00000000	      0.00000000	    -10.34869267	     14.07892379	     12.20892865	      9.83364337	     89.95437384	      0.00000000	      0.00000000
      0.92000000	      0.05853742	      0.71365595	     -3.01499688	      0.55080401	      0.94261936	      1.12443670	    -11.54137886	     -2.68024811	    -21.34875193	    -11.59545638	     -0.20237889	     10.80050481	      9.02444125	    -16.01038134	     24.57352246	      2.30188489	     28.26487051	    -13.67649193	     -0.23869981	      4.42309990	      8.96555592	     12.39963034	     -1.87166426	     -5.71808483	      5.43963183	      3.08191032	    -15.77711749	     -7.18395093	     36.00136164	     89.95437384	      0.00000000	      0.00000000	    -11.40180011	     14.21944757	     11.13195677	      8.38341085	     89.95437384	      0.00000000	      0.00000000
      0.93000000	      0.16427986	      0.79512530	     -3.22057079	      0.56482429	      0.94066293	      1.12312041	    -12.30658405	     -3.21191025	    -21.93350672	    -12.27159822	     -0.21417979	     10.92876632	     10.25259412	    -16.65707879	     24.63016499	      2.30556719	     28.99220276	    -12.29708462	     -0.21462461	      3.82032254	      7.24248731	     11.50120766	     -1.76411259	     -5.79362500	      5.83502608	      3.20644707	    -16.19914816	     -7.46756369	     37.48866901	     89.95437384	      0.00000000	      0.00000000	    -12.37430282	     14.29118390	      9.67292929	      6.91304883	     89.95437384	      0.00000000	      0.00000000
      0.94000000	      0.21762212	      0.77921548	     -3.51703620	      0.57930359	      0.93885464	      1.12201015	    -12.98238375	     -3.67038612	    -22.40939436	    -12.96021828	     -0.22619848	     10.86313631	     11.18359942	    -17.16254353	     24.63133167	      2.39581626	     29.31171079	    -11.23870874	     -0.19615247	      3.35120676	      5.99522814	     10.53349977	     -1.50436697	     -5.76130072	      6.35170674	      3.24932263	    -16.55636333	     -7.90590105	     38.81573834	     89.95437384	      0.00000000	      0.00000000	    -13.50989252	     14.38737209	      7.47646211	      5.77095922	     89.95437384	      0.00000000	      0.00000000
